<svg width="41" height="38" viewBox="0 0 41 38" fill="none" xmlns="http://www.w3.org/2000/svg">
<g id="icn_beneficio1">
<g id="Group">
<path id="Path" fill-rule="evenodd" clip-rule="evenodd" d="M20.6281 21.1533L2.43433 3.16668L3.8437 1.77335L20.6281 18.3667L37.2843 1.77335L38.6937 3.16668L20.6281 21.1533Z" fill="black"/>
<path id="Shape" fill-rule="evenodd" clip-rule="evenodd" d="M35.875 28.3733V29.8933L37.1563 29.3867C38.8219 28.7533 39.975 27.2333 39.975 25.46V4.94001C39.975 2.66001 38.0532 0.76001 35.7469 0.76001H5.25315C2.9469 0.76001 1.02502 2.66001 1.02502 4.94001V25.46C1.02502 27.74 2.9469 29.64 5.25315 29.64H21.525V28.5V28.2467C21.525 24.32 24.7281 21.1533 28.7 21.1533C32.6719 21.1533 35.875 24.4467 35.875 28.3733ZM2.9469 4.81334C2.9469 3.54668 3.9719 2.53334 5.25315 2.53334V2.66001H35.7469C37.0281 2.66001 38.0532 3.67334 38.0532 4.94001V25.3333C38.0532 25.84 37.925 26.22 37.6688 26.6C36.9 22.2933 33.1844 19.1267 28.7 19.1267C23.8313 19.1267 19.8594 22.9267 19.6031 27.6133H5.25315C3.9719 27.6133 2.9469 26.6 2.9469 25.3333V4.81334Z" fill="black"/>
<path id="Shape_2" fill-rule="evenodd" clip-rule="evenodd" d="M19.6031 28.7533C19.8594 33.5667 23.8313 37.3667 28.7 37.3667C33.6969 37.3667 37.7969 33.44 37.7969 28.3733V28.2467C37.7969 23.3067 33.6969 19.2533 28.7 19.2533C23.7031 19.2533 19.6031 23.3067 19.6031 28.2467V28.6267V28.7533ZM21.525 28.2467C21.525 24.32 24.7281 21.1533 28.7 21.1533C32.6719 21.1533 36.0031 24.32 35.875 28.2467V28.3733C35.875 32.3 32.6719 35.34 28.7 35.34C24.8563 35.34 21.7813 32.4267 21.525 28.6267V28.5V28.2467Z" fill="black"/>
<path id="Path_2" fill-rule="evenodd" clip-rule="evenodd" d="M30.3656 31.54L27.8031 29.1333V22.9267H29.725V28.2467L31.6469 30.2733L30.3656 31.54Z" fill="black"/>
</g>
</g>
</svg>
