<svg width="41" height="41" viewBox="0 0 41 41" fill="none" xmlns="http://www.w3.org/2000/svg">
<g id="icn_beneficio2">
<g id="Group">
<path id="Shape" fill-rule="evenodd" clip-rule="evenodd" d="M1.92185 10.1219H39.0781C39.5906 10.1219 39.975 9.73749 39.975 9.22499V4.48437C39.975 2.56249 38.4375 1.02499 36.5156 1.02499H4.48435C2.56248 1.02499 0.896851 2.56249 0.896851 4.48437V9.09687C0.896851 9.73749 1.40935 10.1219 1.92185 10.1219ZM38.0531 8.19999H2.94685V4.48437C2.94685 3.71562 3.58748 2.94687 4.48435 2.94687H36.5156C37.2844 2.94687 38.0531 3.58749 38.0531 4.48437V8.19999Z" fill="black"/>
<rect id="Rectangle" x="5.63745" y="4.61249" width="1.92188" height="1.92188" fill="black"/>
<rect id="Rectangle_2" x="9.73755" y="4.61249" width="1.92188" height="1.92188" fill="black"/>
<rect id="Rectangle_3" x="13.9656" y="4.61249" width="1.92188" height="1.92188" fill="black"/>
<path id="Shape_2" fill-rule="evenodd" clip-rule="evenodd" d="M28.1875 29.9813H36.5156C38.4375 29.9813 40.1031 28.3156 40.1031 26.3938V8.20001H1.02502V26.5219C1.02502 28.4438 2.56252 29.9813 4.4844 29.9813H12.8125L12.4281 28.7C11.4031 25.7531 11.275 22.8063 11.275 21.525C16.2719 20.1156 18.9625 18.5781 20.5 17.2969C22.0375 18.5781 24.7281 20.1156 29.725 21.525C29.706 21.7155 29.6869 21.94 29.6653 22.1943C29.5418 23.6501 29.3354 26.0822 28.5719 28.7L28.1875 29.9813ZM36.5156 28.0594H30.75C31.775 24.0875 31.6469 20.8844 31.3906 20.6281V19.8594L30.75 19.7313C24.6 18.0656 22.0375 16.2719 21.0125 15.2469L20.3719 14.6063L19.7313 15.2469C18.7063 16.1438 16.1438 18.0656 9.99377 19.7313L9.35315 19.8594V20.6281C9.35315 20.6343 9.35286 20.6477 9.35241 20.6681C9.34354 21.0756 9.27398 24.2711 10.25 27.9313H4.4844C3.71565 27.9313 2.9469 27.2906 2.9469 26.3938V10.1219H38.0532V26.5219C38.0532 27.2906 37.4125 28.0594 36.5156 28.0594Z" fill="black"/>
<path id="Shape_3" fill-rule="evenodd" clip-rule="evenodd" d="M20.2437 40.1031H20.5C20.5359 40.1031 20.5618 40.093 20.5918 40.0813C20.6685 40.0514 20.772 40.011 21.1406 40.1031C25.7531 38.6938 29.0843 34.9781 30.75 29.3406C31.9804 25.034 31.911 21.2 31.9036 20.7894C31.9033 20.7725 31.9031 20.7613 31.9031 20.7563C31.775 20.3719 31.5187 19.9875 31.1343 19.8594C24.9843 18.1938 22.4218 16.4 21.3968 15.375C21.0125 14.9906 20.3718 14.9906 19.9875 15.375C18.9625 16.2719 16.4 18.1938 10.25 19.8594C9.73747 19.9875 9.48122 20.3719 9.48122 20.7563C9.48122 20.7691 9.4809 20.7911 9.48045 20.822C9.47194 21.41 9.41704 25.2018 10.6343 29.3406C12.3 34.9781 15.6312 38.6938 20.2437 40.1031ZM12.4281 28.7C11.4031 25.7531 11.275 22.8063 11.275 21.525C16.2718 20.1156 18.9625 18.5781 20.5 17.2969C22.0375 18.5781 24.7281 20.1156 29.725 21.525C29.7059 21.7155 29.6869 21.94 29.6653 22.1943C29.5417 23.6502 29.3354 26.0822 28.5718 28.7C27.1625 33.5688 24.3437 36.7719 20.5 38.0531C16.6562 36.7719 13.9656 33.5688 12.4281 28.7Z" fill="black"/>
</g>
</g>
</svg>
