<svg width="33" height="41" viewBox="0 0 33 41" fill="none" xmlns="http://www.w3.org/2000/svg">
<g id="icn_beneficio3">
<g id="Group">
<path id="Shape" fill-rule="evenodd" clip-rule="evenodd" d="M8.75769 40.1031H27.2885C29.9538 40.1031 31.9846 37.925 31.9846 35.3625V5.63751C31.9846 2.94688 29.8269 0.896881 27.2885 0.896881H8.75769C8.12308 0.896881 7.74231 1.40938 7.74231 1.92188V39.0781C7.74231 39.7188 8.25 40.1031 8.75769 40.1031ZM27.4154 38.1813H9.77308V2.81876H27.4154C28.9385 2.81876 30.2077 4.10001 30.2077 5.63751V35.3625C30.2077 36.9 28.9385 38.1813 27.4154 38.1813Z" fill="black"/>
<path id="Shape_2" fill-rule="evenodd" clip-rule="evenodd" d="M15.3577 1.02499V21.6531L19.9269 17.0406L24.1154 21.2687V1.02499H15.3577ZM17.2615 17.0406V2.94687H22.2115V16.6562L19.9269 14.35L17.2615 17.0406Z" fill="black"/>
<path id="Shape_3" fill-rule="evenodd" clip-rule="evenodd" d="M5.71153 40.1031H8.75769C9.26538 40.1031 9.77307 39.5906 9.9 39.0781V1.92188C9.9 1.28126 9.3923 0.896881 8.88461 0.896881H5.71153C3.04615 0.896881 1.01538 3.07501 1.01538 5.63751V35.3625C1.01538 38.0531 3.17307 40.1031 5.71153 40.1031ZM2.91923 5.76563C2.91923 4.22813 4.18846 2.94688 5.71153 2.94688H7.86923V38.3094H5.71153C4.18846 38.3094 2.91923 37.0281 2.91923 35.4906V5.76563Z" fill="black"/>
</g>
</g>
</svg>
