<?xml version="1.0" encoding="UTF-8"?>
<svg width="40px" height="40px" viewBox="0 0 40 40" version="1.1" xmlns="http://www.w3.org/2000/svg" xmlns:xlink="http://www.w3.org/1999/xlink">
    <!-- Generator: Sketch 52.6 (67491) - http://www.bohemiancoding.com/sketch -->
    <title>Group 8</title>
    <desc>Created with Sketch.</desc>
    <defs>
        <path d="M0.380594059,17.212335 C2.39978177,15.2328509 5.14716083,13.8793317 8.67207921,13.6455446 C28.4501242,12.333729 31.9286671,-0.315614483 37.8502101,0.0556768765 C39.192094,1.85362622 39.9865347,4.08412312 39.9865347,6.50019802 L39.9865347,24.5366337 C39.9865347,30.4930693 35.1580198,35.3211881 29.2019802,35.3211881 L11.1655446,35.3211881 C5.20950495,35.3211881 0.380594059,30.4930693 0.380594059,24.5366337" id="path-1"></path>
    </defs>
    <g id="Final-Design---V1.2" stroke="none" stroke-width="1" fill="none" fill-rule="evenodd">
        <g id="Course---detail" transform="translate(-134.000000, -28.000000)">
            <g id="Group-8" transform="translate(134.000000, 28.000000)">
                <path d="M29.2019802,39.6061386 L11.1655446,39.6061386 C5.20950495,39.6061386 0.380990099,34.7776238 0.380990099,28.8211881 L0.380990099,10.7851485 C0.380990099,4.82871287 5.20950495,0.000198019802 11.1655446,0.000198019802 L29.2019802,0.000198019802 C35.1580198,0.000198019802 39.9865347,4.82871287 39.9865347,10.7851485 L39.9865347,28.8211881 C39.9865347,34.7776238 35.1580198,39.6061386 29.2019802,39.6061386" id="Fill-1" fill="#4E05B2"></path>
                <g id="Group-5" transform="translate(0.000000, 4.284752)">
                    <mask id="mask-2" fill="white">
                        <use xlink:href="#path-1"></use>
                    </mask>
                    <g id="Clip-4"></g>
                </g>
                <path d="M24.9514851,25.1033267 C24.9514851,21.7809505 23.9625743,20.9504554 20.5613861,20.9112475 L16.1316832,20.9112475 L16.1316832,28.8209505 L20.7194059,28.8209505 C24.0025743,28.8209505 24.9514851,28.1484752 24.9514851,25.1033267 M20.2057426,9.99560396 L16.1316832,9.99560396 L16.1316832,16.9167921 L20.5217822,16.9167921 C23.4485149,16.9167921 24.3582178,16.2047129 24.3582178,13.396396 C24.3582178,10.6280792 23.3693069,9.99560396 20.2057426,9.99560396 M31.0021782,26.2502574 C31.0021782,31.866099 28.2738614,33.3690693 21.7479208,33.3690693 C16.5273267,33.3690693 13.679802,33.3294653 10.2394059,33.0526337 L10.2394059,5.76352475 C13.3241584,5.48669307 15.8948515,5.44708911 20.4825743,5.44708911 C27.6009901,5.44708911 30.1324752,6.95005941 30.1324752,12.565901 C30.1324752,16.4815446 28.7483168,18.4985743 25.3467327,18.8150099 L25.3467327,18.9730297 C29.5392079,19.3290693 31.0021782,21.8997624 31.0021782,26.2502574" id="Fill-6" fill="#FFFFFF"></path>
            </g>
        </g>
    </g>
</svg>